<svg width="64" height="63" viewBox="0 0 64 63" fill="none" xmlns="http://www.w3.org/2000/svg">
<path fill-rule="evenodd" clip-rule="evenodd" d="M32.0001 0C14.3292 0 0 14.331 0 32.0098C0 46.1528 9.16899 58.1514 21.8837 62.384C23.4829 62.6803 24.0702 61.6896 24.0702 60.8441C24.0702 60.0809 24.0403 57.5592 24.0268 54.8845C15.124 56.8208 13.2455 51.1077 13.2455 51.1077C11.7899 47.4078 9.69252 46.4242 9.69252 46.4242C6.78928 44.4374 9.91137 44.4781 9.91137 44.4781C13.1248 44.704 14.8169 47.7768 14.8169 47.7768C17.6709 52.6705 22.3028 51.2556 24.1289 50.438C24.416 48.3688 25.2455 46.9569 26.1605 46.1576C19.053 45.348 11.5811 42.6033 11.5811 30.3381C11.5811 26.8435 12.8312 23.9878 14.8783 21.7462C14.5461 20.9399 13.4508 17.6843 15.1883 13.2751C15.1883 13.2751 17.8754 12.4148 23.9906 16.5563C26.543 15.8469 29.2806 15.4914 32.0001 15.4793C34.7197 15.4914 37.4593 15.8469 40.0167 16.5563C46.1246 12.4148 48.8079 13.2751 48.8079 13.2751C50.5497 17.6843 49.4539 20.9399 49.1217 21.7462C51.1733 23.9878 52.4149 26.8433 52.4149 30.3381C52.4149 42.6324 44.9289 45.3397 37.8033 46.132C38.951 47.1254 39.9737 49.0735 39.9737 52.0597C39.9737 56.3426 39.9366 59.7897 39.9366 60.8441C39.9366 61.6959 40.5126 62.6941 42.1349 62.3798C54.8426 58.1423 64 46.1481 64 32.0098C64 14.331 49.6728 0 32.0001 0Z" fill="#D1D2D6"/>
<path d="M11.9998 45.5905C11.9301 45.7499 11.6814 45.7978 11.4554 45.6884C11.2249 45.5837 11.0954 45.3661 11.1701 45.2059C11.2386 45.0417 11.4873 44.9958 11.7173 45.1061C11.9483 45.2107 12.0798 45.4303 11.9998 45.5905ZM13.5626 46.9999C13.4111 47.142 13.1149 47.076 12.9138 46.8516C12.706 46.6276 12.6671 46.3284 12.8208 46.1841C12.9771 46.0423 13.2644 46.1086 13.4727 46.3327C13.6805 46.5591 13.7208 46.8566 13.5624 47.0002L13.5626 46.9999ZM14.6348 48.8033C14.4399 48.94 14.1215 48.8118 13.9249 48.5262C13.7303 48.2408 13.7303 47.8983 13.9291 47.761C14.1265 47.6238 14.4399 47.7472 14.6392 48.0305C14.8336 48.3209 14.8336 48.6635 14.6345 48.8035L14.6348 48.8033ZM16.4477 50.892C16.2735 51.0859 15.9028 51.034 15.6312 50.7691C15.3536 50.5102 15.2761 50.1427 15.4508 49.9485C15.6269 49.7541 15.9999 49.8087 16.2735 50.0714C16.5493 50.3298 16.6336 50.7001 16.4479 50.892H16.4477ZM18.7908 51.5972C18.7143 51.8486 18.357 51.9629 17.9973 51.8561C17.638 51.7461 17.4027 51.4514 17.4753 51.1972C17.55 50.9441 17.9088 50.825 18.2713 50.9393C18.6301 51.0489 18.8658 51.3413 18.7911 51.5972H18.7908ZM21.4579 51.8962C21.4669 52.1611 21.1617 52.3808 20.7839 52.3855C20.4039 52.3939 20.0967 52.1795 20.0927 51.9191C20.0927 51.6516 20.391 51.434 20.7707 51.4277C21.1484 51.4201 21.4579 51.633 21.4579 51.8962ZM24.0776 51.7947C24.123 52.0531 23.8604 52.3185 23.4854 52.3891C23.1166 52.4571 22.7752 52.2976 22.7282 52.0415C22.6823 51.7765 22.9499 51.5113 23.3179 51.4426C23.6937 51.3766 24.0298 51.532 24.0776 51.7947Z" fill="#D1D2D6"/>
</svg>
