<svg width="81" height="92" viewBox="0 0 81 92" fill="none" xmlns="http://www.w3.org/2000/svg">
<path d="M80.794 0.242188L73.4462 83.0326L40.418 92.2422L7.48068 83.0455L0.140747 0.242188H80.794Z" fill="#E44D26"/>
<path d="M40.4674 85.2027L67.1559 77.7607L73.435 7.01251H40.4674V85.2027Z" fill="#F16529"/>
<path d="M26.1837 27.3239H40.4674V17.1683H15.149L15.3907 19.8928L17.8724 47.8786H40.4674V37.7232H27.1065L26.1837 27.3239Z" fill="#EBEBEB"/>
<path d="M28.4593 52.9563H18.3236L19.7382 68.9019L40.421 74.6769L40.4674 74.6639V64.0979L40.4232 64.1098L29.1782 61.0558L28.4593 52.9563Z" fill="#EBEBEB"/>
<path d="M40.4325 47.8785H52.8658L51.6938 61.0494L40.4325 64.1065V74.672L61.1318 68.902L61.2836 67.1862L63.6563 40.4501L63.9027 37.7231H40.4325V47.8785Z" fill="white"/>
<path d="M40.4325 27.2991V27.3239H64.8214L65.024 25.0412L65.484 19.8928L65.7255 17.1683H40.4325V27.2991Z" fill="white"/>
</svg>
