<svg width="90" height="100" viewBox="0 0 90 100" fill="none" xmlns="http://www.w3.org/2000/svg">
<path d="M86.5658 76.3421L46.4211 99.0526V81.3684L71.4342 67.6053L86.5658 76.3421V76.3421ZM89.3158 73.8553V26.3684L74.6316 34.8553V65.3816L89.3158 73.8553V73.8553ZM2.75 76.3421L42.8947 99.0526V81.3684L17.8684 67.6053L2.75 76.3421V76.3421ZM0 73.8553V26.3684L14.6842 34.8553V65.3816L0 73.8553ZM1.72369 23.2895L42.8947 0V17.0921L16.5132 31.6053L16.3026 31.7237L1.72369 23.2895V23.2895ZM87.5921 23.2895L46.4211 0V17.0921L72.8026 31.5921L73.0132 31.7105L87.5921 23.2895Z" fill="#D1D2D6"/>
</svg>
