<svg width="64" height="63" fill="none" xmlns="http://www.w3.org/2000/svg"><path fill-rule="evenodd" clip-rule="evenodd" d="M32 0C14.33 0 0 14.331 0 32.01c0 14.143 9.169 26.14 21.884 30.374 1.599.296 2.186-.694 2.186-1.54 0-.763-.03-3.285-.043-5.96-8.903 1.937-10.782-3.776-10.782-3.776-1.455-3.7-3.552-4.684-3.552-4.684-2.904-1.987.218-1.946.218-1.946 3.214.226 4.906 3.299 4.906 3.299 2.854 4.893 7.486 3.479 9.312 2.661.287-2.07 1.116-3.481 2.031-4.28-7.107-.81-14.579-3.555-14.579-15.82 0-3.495 1.25-6.35 3.297-8.592-.332-.806-1.427-4.062.31-8.47 0 0 2.687-.861 8.803 3.28 2.552-.71 5.29-1.065 8.01-1.077 2.719.012 5.458.368 8.016 1.077 6.108-4.141 8.79-3.28 8.79-3.28 1.743 4.408.647 7.664.315 8.47 2.051 2.242 3.293 5.097 3.293 8.592 0 12.294-7.486 15.002-14.612 15.794 1.148.993 2.17 2.942 2.17 5.928 0 4.283-.036 7.73-.036 8.784 0 .852.576 1.85 2.198 1.536C54.843 58.142 64 46.148 64 32.01 64 14.33 49.673 0 32 0z" fill="#D1D2D6"/><path d="M12 45.59c-.07.16-.319.208-.545.098-.23-.104-.36-.322-.285-.482.069-.164.317-.21.547-.1.231.105.363.324.283.484zM13.563 47c-.152.142-.448.076-.65-.148-.207-.224-.246-.524-.092-.668.156-.142.443-.075.652.149.207.226.248.524.09.667zm1.072 1.803c-.195.137-.514.009-.71-.277-.195-.285-.195-.628.004-.765.197-.137.51-.014.71.27.195.29.195.633-.005.773zm1.813 2.089c-.175.194-.545.142-.817-.123-.277-.259-.355-.626-.18-.82.176-.195.549-.14.822.122.276.259.36.63.175.821zm2.343.705c-.077.252-.434.366-.794.26-.359-.11-.594-.406-.522-.66.075-.253.434-.372.796-.258.36.11.595.402.52.658zm2.667.3c.009.264-.296.484-.674.489-.38.008-.687-.207-.691-.467 0-.267.298-.485.678-.491.377-.008.687.205.687.468zm2.62-.102c.045.258-.218.523-.593.594-.368.068-.71-.091-.757-.348-.046-.264.222-.53.59-.598.376-.066.712.089.76.352z" fill="#D1D2D6"/></svg>